<?xml version="1.0" standalone="no"?>
<!DOCTYPE svg PUBLIC "-//W3C//DTD SVG 20010904//EN"
 "http://www.w3.org/TR/2001/REC-SVG-20010904/DTD/svg10.dtd">
<svg version="1.0" xmlns="http://www.w3.org/2000/svg"
 width="700.000000pt" height="700.000000pt" viewBox="0 0 700.000000 700.000000"
 preserveAspectRatio="xMidYMid meet">
<metadata>
Created by potrace 1.11, written by Peter Selinger 2001-2013
</metadata>
<g transform="translate(0.000000,700.000000) scale(0.100000,-0.100000)"
fill="#000000" stroke="none">
<path d="M2290 5599 c-580 -335 -1056 -613 -1058 -617 -1 -4 85 -57 190 -119
674 -390 1930 -1113 1933 -1113 3 0 5 554 5 1230 0 677 -3 1230 -7 1230 -5 -1
-483 -275 -1063 -611z"/>
<path d="M3640 4897 l0 -1314 492 -284 c270 -156 497 -285 504 -287 7 -2 286
211 620 473 l607 476 28 -33 28 -33 -2 504 -2 504 -1130 653 c-621 359 -1133
653 -1137 654 -5 0 -8 -591 -8 -1313z"/>
<path d="M1082 3356 l3 -1258 520 -300 c286 -165 621 -358 744 -429 123 -72
218 -122 210 -112 -7 10 -22 28 -32 40 -11 12 -18 26 -16 31 2 5 74 65 159
132 85 67 154 126 153 130 -2 8 -1732 3011 -1739 3019 -2 3 -3 -561 -2 -1253z"/>
<path d="M1470 4506 c0 -3 278 -488 619 -1078 340 -590 693 -1203 785 -1363
92 -159 171 -293 174 -297 4 -4 75 46 157 110 l150 118 0 714 0 714 -905 524
c-933 539 -980 566 -980 558z"/>
<path d="M5416 3255 c-274 -215 -499 -396 -498 -401 0 -5 224 -138 499 -297
l498 -287 3 345 c1 190 1 499 0 688 l-3 342 -499 -390z"/>
<path d="M3640 2741 l0 -522 73 57 c39 31 210 165 380 297 238 187 304 244
295 253 -7 6 -168 100 -358 209 -190 109 -355 205 -367 213 l-23 14 0 -521z"/>
<path d="M4148 2262 l-507 -397 -1 -537 c0 -296 2 -538 4 -538 6 0 2119 1220
2128 1228 8 8 -1074 635 -1101 639 -9 2 -244 -176 -523 -395z"/>
<path d="M3278 1579 c-43 -33 -78 -64 -78 -69 0 -6 35 -70 78 -144 l77 -134 3
104 c1 58 1 150 0 204 l-3 100 -77 -61z"/>
<path d="M2850 1246 c-57 -46 -106 -88 -107 -93 -2 -6 97 -68 219 -138 123
-71 239 -138 258 -149 l35 -21 -21 35 c-11 19 -74 128 -139 243 -66 114 -124
207 -130 207 -5 -1 -57 -39 -115 -84z"/>
</g>
</svg>
